<?xml version="1.0" standalone="no"?><!DOCTYPE svg PUBLIC "-//W3C//DTD SVG 1.1//EN" "http://www.w3.org/Graphics/SVG/1.1/DTD/svg11.dtd"><svg t="1488272189256" class="icon" style="" viewBox="0 0 1024 1024" version="1.1" xmlns="http://www.w3.org/2000/svg" p-id="9038" xmlns:xlink="http://www.w3.org/1999/xlink" width="200" height="200"><defs><style type="text/css"></style></defs><path d="M494.934323 638.57786c0 9.426697 7.640004 17.067724 17.0667 17.067724s17.066701-7.641027 17.066701-17.067724c0-9.42465-7.640004-17.066701-17.066701-17.066701s-17.066701 7.641027-17.0667 17.066701zM494.934323 691.200358c0 9.426697 7.640004 17.065677 17.0667 17.065678s17.066701-7.640004 17.066701-17.065678c0-9.426697-7.640004-17.066701-17.066701-17.066701s-17.066701 7.640004-17.0667 17.066701z" p-id="9039" fill="#999999"></path><path d="M512.001023 0c-283.021935 0-512 228.977042-512 512s228.977042 512 512 512 512-228.977042 512-512S795.022958 0 512.001023 0zM345.601202 304.354799c2.844791-112.354927 34.133402-199.109804 166.399821-199.109803s163.55503 81.066317 166.399821 196.266036c14.222933 9.954723 28.444842 32.711006 25.600051 54.04387-4.266164 27.022447-28.444842 63.999616-56.888661 81.06734-35.55682 63.999616-92.445482 106.666368-133.688815 106.666368-41.24538 0-99.556437-44.089148-135.111211-109.511159-32.711006-18.489096-51.200102-49.777707-55.466266-78.222549-5.690606-21.332864 7.109931-39.820937 22.75526-51.200103z m493.510904 469.333249c-81.066317 88.177272-197.688431 145.066957-327.111083 145.066956s-246.044766-55.466266-327.111082-145.066956V722.488968c1.422396-88.177272 38.399565-118.043487 65.422011-130.844023 27.022447-12.799514 132.266419-51.200102 155.022703-52.622498 21.332864 39.821961 52.621475 63.999616 106.666368 63.999616s79.644945-27.022447 106.666369-63.999616c15.645328 2.843768 100.978832 22.75526 160.711261 58.311057 56.888661 35.554774 58.311057 93.865831 59.733453 125.155464v51.19908z" p-id="9040" fill="#999999"></path></svg>