<?xml version="1.0" standalone="no"?><!DOCTYPE svg PUBLIC "-//W3C//DTD SVG 1.1//EN" "http://www.w3.org/Graphics/SVG/1.1/DTD/svg11.dtd"><svg t="1503482957314" class="icon" style="" viewBox="0 0 1024 1024" version="1.1" xmlns="http://www.w3.org/2000/svg" p-id="2386" xmlns:xlink="http://www.w3.org/1999/xlink" width="200" height="200"><defs><style type="text/css"></style></defs><path d="M753.664 38.4c-150.528 0-270.336 123.392-270.336 272.896 0 114.688 73.728 244.224 136.704 332.8 48.128 69.12 99.328 126.464 122.368 152.064 3.072 3.072 5.632 5.632 11.264 5.632 3.072 0 8.704-3.072 11.264-5.632 25.6-25.6 73.728-83.456 122.368-152.064 62.464-89.088 136.704-218.112 136.704-332.8 0-149.504-122.368-272.896-270.336-272.896z m0 436.224c-91.136 0-164.864-74.752-164.864-166.4s73.728-166.4 164.864-166.4 164.864 74.752 164.864 166.4-73.728 166.4-164.864 166.4z m-264.192 246.784l-409.6-46.08 59.904-203.776c3.072-11.264 14.336-19.968 25.6-19.968h304.128c14.336 39.936 31.232 77.312 51.2 114.688l-31.232 155.136z m-57.344 264.192h-403.968c-8.704 0-16.896-3.072-22.528-11.264-5.632-5.632-5.632-14.336-5.632-23.04l56.832-195.072 415.232 46.08-39.936 183.296z m503.808-338.944l36.864 129.024-122.368-14.336c22.528-25.6 45.568-57.344 71.168-91.648 3.072-8.192 8.704-14.336 14.336-23.04z m59.392 212.48l25.6 89.088c0 3.072 3.072 5.632 3.072 8.704 0 14.336-11.264 28.672-28.672 28.672h-477.696l36.864-175.104 440.832 48.64z" p-id="2387" fill="#e98f36"></path></svg>