<?xml version="1.0" standalone="no"?><!DOCTYPE svg PUBLIC "-//W3C//DTD SVG 1.1//EN" "http://www.w3.org/Graphics/SVG/1.1/DTD/svg11.dtd"><svg class="icon" style="" viewBox="0 0 1024 1024" version="1.1" xmlns="http://www.w3.org/2000/svg" p-id="2635" xmlns:xlink="http://www.w3.org/1999/xlink" width="200" height="200"><defs><style type="text/css"><![CDATA[

]]></style></defs><path d="M250.487961 781.530666 451.66996 695.879937 328.172251 574.373583ZM848.057849 307.45951 720.576409 175.99434 351.07896 540.511357 483.539808 677.952636ZM953.081811 150.208047c0 0-33.744545-37.346583-72.585155-65.729004s-68.717058 0-68.717058 0l-65.729004 65.729004 133.450385 132.953058c0 0 56.268538-56.766888 73.580832-76.18617C970.394105 187.55463 953.081811 150.208047 953.081811 150.208047zM810.958906 850.370521c0 9.215896-7.471159 16.687054-16.687054 16.687054l-622.190635 0c-9.215896 0-16.687054-7.471159-16.687054-16.687054L155.394163 233.103012c0-9.215896 7.471159-16.687054 16.687054-16.687054l395.560034 0 82.390475-87.663572L87.35658 128.752386c-11.120268 0-20.134573 9.014304-20.134573 20.134573l0 785.700639c0 11.120268 9.014304 20.134573 20.134573 20.134573l791.640931 0c11.120268 0 20.134573-9.014304 20.134573-20.134573L899.132084 373.414665l-88.171132 81.838913L810.960952 850.370521z" p-id="2636" fill="#666"></path></svg>