<?xml version="1.0" standalone="no"?><!DOCTYPE svg PUBLIC "-//W3C//DTD SVG 1.1//EN" "http://www.w3.org/Graphics/SVG/1.1/DTD/svg11.dtd"><svg t="1491814252639" class="icon" style="" viewBox="0 0 1024 1024" version="1.1" xmlns="http://www.w3.org/2000/svg" p-id="3071" xmlns:xlink="http://www.w3.org/1999/xlink" width="200" height="200"><defs><style type="text/css"></style></defs><path d="M692.379719 64.983014 632.038422 64.983014l0 120.67236 60.341297 0.636496L692.379719 64.983014zM692.379719 64.983014M815.010687 369.264135l121.308857 0 0-60.341297L815.6523 308.922838 815.010687 369.264135zM815.010687 369.264135M935.605276 107.714234l-42.662659-42.665729L761.288135 196.698894l42.211381 43.1211L935.605276 107.714234zM935.605276 107.714234M564.421418 641.025609l371.908358-139.005914L498.921635 67.565838 357.505835 436.124915 243.061316 550.569434 448.968943 756.478084l0 0 131.552152 131.557268 42.666752-42.666752L491.631602 713.810309 564.421418 641.025609 564.421418 641.025609zM413.8941 459.305871 521.805832 176.502923 825.115835 477.55142 542.298562 586.164117l-88.453564 88.453564L326.216201 546.984792 413.8941 459.305871 413.8941 459.305871zM413.8941 459.305871M423.005618 783.830035 217.111295 577.926502 85.456812 709.586101l205.898417 205.8933 88.974427-88.979544 131.571594 131.571594 42.665729-42.666752L422.997432 783.838222 423.005618 783.830035 423.005618 783.830035zM293.566594 829.128731 171.807483 707.374736l42.824341-42.824341 121.753995 121.759111L293.566594 829.128731 293.566594 829.128731zM293.566594 829.128731" p-id="3072" fill="#bf2071"></path></svg>