<?xml version="1.0" standalone="no"?><!DOCTYPE svg PUBLIC "-//W3C//DTD SVG 1.1//EN" "http://www.w3.org/Graphics/SVG/1.1/DTD/svg11.dtd"><svg t="1505564019942" class="icon" style="" viewBox="0 0 1024 1024" version="1.1" xmlns="http://www.w3.org/2000/svg" p-id="2393" xmlns:xlink="http://www.w3.org/1999/xlink" width="200" height="200"><defs><style type="text/css"></style></defs><path d="M283.794286 791.405714c-149.211429 0-174.08-93.622857-165.302857-133.12 7.314286-39.497143 51.2-90.697143 134.582857-90.697143 95.085714 0 181.394286 24.868571 285.257143 74.605715-74.605714 93.622857-163.84 149.211429-254.537143 149.211428zM1024 702.171429V197.485714C1024 87.771429 936.228571 0 826.514286 0h-629.028572C87.771429 0 0 87.771429 0 197.485714v630.491429C0 936.228571 87.771429 1024 197.485714 1024h630.491429c96.548571 0 178.468571-70.217143 194.56-162.377143-52.662857-21.942857-279.405714-119.954286-396.434286-177.005714-89.234286 109.714286-184.32 175.542857-326.217143 175.542857s-238.445714-87.771429-226.742857-194.56c7.314286-70.217143 55.588571-185.782857 264.777143-163.84 109.714286 10.24 159.451429 30.72 250.148571 59.977143 23.405714-42.422857 42.422857-89.234286 57.051429-138.971429H247.222857V381.805714h198.948572V311.588571H204.8v-43.885714h241.371429v-102.4s2.925714-16.091429 20.48-16.091428h98.011428v118.491428H819.2v43.885714H563.2v70.217143h209.188571c-19.017143 77.531429-48.274286 149.211429-84.845714 213.577143 59.977143 21.942857 336.457143 106.788571 336.457143 106.788572z" fill="#0AAAF0" p-id="2394"></path></svg>